<svg width="371" height="155" viewBox="0 0 371 155" fill="none" xmlns="http://www.w3.org/2000/svg">
<circle cx="192.5" cy="77.5" r="62" stroke="#DAEEFA" stroke-width="11"/>
<path d="M31.4545 30.9091L50.5455 96.5455H51.2727L70.3636 30.9091H98.9091L68.1818 124H33.6364L2.90909 30.9091H31.4545Z" fill="#DAEEFA"/>
<path d="M286.455 51.2727V30.9091H367.364V51.2727H339.364V124H314.455V51.2727H286.455Z" fill="#DAEEFA"/>
<path d="M166.545 89H159.727L167.409 65.7273H176.045L183.727 89H176.909L171.818 72.1364H171.636L166.545 89ZM165.273 79.8182H178.091V84.5455H165.273V79.8182ZM185.969 89V65.7273H196.014C197.741 65.7273 199.253 66.0682 200.548 66.75C201.844 67.4318 202.851 68.3902 203.571 69.625C204.291 70.8598 204.651 72.303 204.651 73.9545C204.651 75.6212 204.279 77.0644 203.537 78.2841C202.802 79.5038 201.768 80.4432 200.435 81.1023C199.109 81.7614 197.56 82.0909 195.787 82.0909H189.787V77.1818H194.514C195.257 77.1818 195.889 77.053 196.412 76.7955C196.942 76.5303 197.348 76.1553 197.628 75.6705C197.916 75.1856 198.06 74.6136 198.06 73.9545C198.06 73.2879 197.916 72.7197 197.628 72.25C197.348 71.7727 196.942 71.4091 196.412 71.1591C195.889 70.9015 195.257 70.7727 194.514 70.7727H192.287V89H185.969ZM206.969 89V65.7273H217.014C218.741 65.7273 220.253 66.0682 221.548 66.75C222.844 67.4318 223.851 68.3902 224.571 69.625C225.291 70.8598 225.651 72.303 225.651 73.9545C225.651 75.6212 225.279 77.0644 224.537 78.2841C223.802 79.5038 222.768 80.4432 221.435 81.1023C220.109 81.7614 218.56 82.0909 216.787 82.0909H210.787V77.1818H215.514C216.257 77.1818 216.889 77.053 217.412 76.7955C217.942 76.5303 218.348 76.1553 218.628 75.6705C218.916 75.1856 219.06 74.6136 219.06 73.9545C219.06 73.2879 218.916 72.7197 218.628 72.25C218.348 71.7727 217.942 71.4091 217.412 71.1591C216.889 70.9015 216.257 70.7727 215.514 70.7727H213.287V89H206.969Z" fill="#DAEEFA"/>
</svg>
