<svg width="300" height="300" viewBox="0 0 300 300" fill="none" xmlns="http://www.w3.org/2000/svg">
<path d="M50 101.667V76.3333C50 69.6145 52.6339 63.1709 57.3223 58.42C62.0107 53.669 68.3696 51 75 51H100M50 203V228.333C50 235.052 52.6339 241.496 57.3223 246.247C62.0107 250.998 68.3696 253.667 75 253.667H100M200 51H225C231.63 51 237.989 53.669 242.678 58.42C247.366 63.1709 250 69.6145 250 76.3333V101.667M200 253.667H225C231.63 253.667 237.989 250.998 242.678 246.247C247.366 241.496 250 235.052 250 228.333V203M112.5 127H112.625M187.5 127H187.625M118.75 190.333C122.823 194.546 127.686 197.893 133.052 200.178C138.418 202.463 144.18 203.64 150 203.64C155.82 203.64 161.582 202.463 166.948 200.178C172.314 197.893 177.177 194.546 181.25 190.333" stroke="#A5DFBF" stroke-width="25" stroke-linecap="round" stroke-linejoin="round"/>
</svg>
